<?xml version="1.0" encoding="utf-8"?>
<!-- Generator: Adobe Illustrator 18.1.0, SVG Export Plug-In . SVG Version: 6.00 Build 0)  -->
<svg version="1.1" id="Layer_1" xmlns="http://www.w3.org/2000/svg" xmlns:xlink="http://www.w3.org/1999/xlink" x="0px" y="0px"
	 width="218px" height="62px" viewBox="0 0 218 62" enable-background="new 0 0 218 62" xml:space="preserve">
<g>
	<g>
		<path fill-rule="evenodd" clip-rule="evenodd" fill="#466283" d="M74.4,32.2l1.5-5h7.8l1.5,5h6L83.8,9.7h-7.5l-7.6,22.5H74.4z
			 M82.5,23.8H77l2.6-9.7h0.1L82.5,23.8z"/>
		<polygon fill-rule="evenodd" clip-rule="evenodd" fill="#466283" points="106.8,32.2 106.8,28.5 98.2,28.5 98.2,9.7 92.5,9.7 
			92.5,32.2 		"/>
		<polygon fill-rule="evenodd" clip-rule="evenodd" fill="#466283" points="122.1,32.2 122.1,28.5 113.6,28.5 113.6,9.7 107.9,9.7 
			107.9,32.2 		"/>
		<path fill-rule="evenodd" clip-rule="evenodd" fill="#466283" d="M126.7,32.2l1.5-5h7.8l1.5,5h6l-7.4-22.5h-7.5l-7.6,22.5H126.7z
			 M134.9,23.8h-5.4L132,14h0.1L134.9,23.8z"/>
		<polygon fill-rule="evenodd" clip-rule="evenodd" fill="#466283" points="159.1,32.2 159.1,28.5 150.6,28.5 150.6,9.7 144.9,9.7 
			144.9,32.2 		"/>
		<path fill-rule="evenodd" clip-rule="evenodd" fill="#466283" d="M169.3,29.2c-3.2,0-3.6-2.5-3.6-8.3c0-5.8,0.4-8.3,3.6-8.3
			s3.6,2.5,3.6,8.3C173,26.7,172.6,29.2,169.3,29.2z M169.3,32.6c9.4,0,9.4-5.7,9.4-11.6c0-6,0-11.6-9.4-11.6
			c-9.4,0-9.4,5.7-9.4,11.6C159.9,26.8,159.9,32.6,169.3,32.6z"/>
		<path fill-rule="evenodd" clip-rule="evenodd" fill="#466283" d="M194.6,9.7v15.7c0,2.5-1.1,3.9-3.6,3.9c-2.1,0-3.5-1.1-3.5-3.9
			V9.7h-5.7v16c0,4.2,3,6.9,9.3,6.9c7,0,9.3-3.6,9.3-6.9v-16H194.6z"/>
		<polygon fill-rule="evenodd" clip-rule="evenodd" fill="#466283" points="209.1,32.2 209.1,22.4 217.2,22.4 217.2,18.9 
			209.1,18.9 209.1,13.1 217.6,13.1 217.6,9.7 203.4,9.7 203.4,32.2 		"/>
	</g>
	<g>
		<path fill-rule="evenodd" clip-rule="evenodd" fill="#466283" d="M107.8,42.7c0.3-4.7-3.1-7.3-8.7-7.3c-9.3,0-9.7,5.8-9.7,11.5
			c0,8.6,1.1,11.8,10.7,11.8c2.3,0,6.2-0.5,7.7-0.7V46.5H99V50h3.1v5c-0.9,0.2-1.9,0.4-2.8,0.4c-3.3,0-4.1-1.2-4.1-8.3
			c0-4.4,0-8.3,3.6-8.3c3,0,3.4,1.8,3.4,3.9H107.8z"/>
		<path fill-rule="evenodd" clip-rule="evenodd" fill="#466283" d="M118.4,39.3h2.5c1.8,0,2.9,0.8,2.9,3c0,1.4-0.6,3.3-2.9,3.3h-2.5
			V39.3z M118.4,49h1.5c4.4,0,4.1,2.3,4.1,5c0,1.5-0.2,3,0.6,4.4h5.6c-0.5-0.9-0.6-5.2-0.6-6.6c0-4.1-3.7-4.3-5-4.4v-0.1
			c3.7-0.5,5.1-2.7,5.1-5.5c0-3.8-2.5-5.9-6.4-5.9h-10.5v22.5h5.7V49z"/>
		<path fill-rule="evenodd" clip-rule="evenodd" fill="#466283" d="M143,55.3c-3.2,0-3.6-2.5-3.6-8.3c0-5.8,0.4-8.3,3.6-8.3
			c3.2,0,3.6,2.5,3.6,8.3C146.7,52.8,146.2,55.3,143,55.3z M143,58.7c9.4,0,9.4-5.7,9.4-11.6c0-6,0-11.6-9.4-11.6
			c-9.4,0-9.4,5.7-9.4,11.6C133.6,53,133.6,58.7,143,58.7z"/>
		<path fill-rule="evenodd" clip-rule="evenodd" fill="#466283" d="M169.8,35.8v15.7c0,2.5-1.1,3.9-3.6,3.9c-2.1,0-3.5-1.1-3.5-3.9
			V35.8h-5.7v16c0,4.2,3,6.9,9.3,6.9c7,0,9.3-3.6,9.3-6.9v-16H169.8z"/>
		<path fill-rule="evenodd" clip-rule="evenodd" fill="#466283" d="M185.9,39.3h2.9c2.6,0,3.2,1.6,3.2,3.4c0,1.5-1.2,3-2.9,3h-3.2
			V39.3z M180.2,58.3h5.7v-9.2h4.2c6.7,0,7.6-4.1,7.6-6.6c0-4.1-2-6.7-7.3-6.7h-10.3V58.3z"/>
	</g>
	<g>
		<g>
			<path fill-rule="evenodd" clip-rule="evenodd" fill="#466283" d="M0.4,43.6c0,0,6.2,19.5,18.9,18c12.7-1.4,46.1-17.8,46.1-17.8
				L0.4,43.6z"/>
			<path fill-rule="evenodd" clip-rule="evenodd" fill="#678FB2" d="M35.7,0.8c0,0,10.1,9.3,6.3,17.1c-3.7,7.8-20.6,24.6-20.6,24.6
				L35.7,0.8z"/>
			<path fill-rule="evenodd" clip-rule="evenodd" fill="#6CBCDD" d="M82.5,52.8c0,0-20.6,8.7-28.5-2.6C46.1,38.9,35.6,0.3,35.6,0.3
				L82.5,52.8z"/>
		</g>
		<circle fill-rule="evenodd" clip-rule="evenodd" fill="#F6D400" cx="38.4" cy="36.2" r="6.6"/>
	</g>
</g>
</svg>
