<?xml version="1.0" encoding="utf-8"?>
<!-- Generator: Adobe Illustrator 18.1.0, SVG Export Plug-In . SVG Version: 6.00 Build 0)  -->
<svg version="1.1" id="Layer_1" xmlns="http://www.w3.org/2000/svg" xmlns:xlink="http://www.w3.org/1999/xlink" x="0px" y="0px"
	 width="16px" height="16px" viewBox="0 0 16 16" enable-background="new 0 0 16 16" xml:space="preserve">
<g>
	<g>
		<path fill="#456283" d="M0.4,2.5C0.3,2.7,0.3,3,0.3,3.2c-0.1,0.5-1,4.5,3.6,9c4.7,4.5,8.5,3.6,9.1,3.3c0.2,0,0.4,0,0.6-0.2
			c0.4-0.3,1.2-0.9,1.5-1.3c0.4-0.5,0.3-0.9-0.2-1.2l-3.5-2.4c-0.3-0.2-0.8-0.2-1,0.2l-0.9,1.3c-0.1,0.1-0.1,0.2-0.1,0.3
			c-0.1,0.1-1.3,0.7-3.4-1.5c-2.2-2.2-2.4-3.3-2.2-4c0.1,0,0.2-0.1,0.2-0.1l1.3-0.9c0.3-0.2,0.4-0.7,0.1-1.1L2.9,1.1
			C2.5,0.7,2.2,0.5,1.7,1C1.3,1.3,0.7,2.1,0.4,2.5z"/>
		<path fill="#456283" d="M11.3,8.1c0,0-0.1,0-0.1,0c-0.4-0.1-0.7-0.4-0.6-0.8c0.1-0.6,0-1.1-0.3-1.4C9.8,5.3,8.9,5.2,8.6,5.3
			C8.2,5.3,7.8,5,7.8,4.6c0-0.4,0.3-0.8,0.7-0.8c0.2,0,1.9-0.1,2.9,1C12,5.4,12.2,6.3,12,7.5C12,7.8,11.7,8.1,11.3,8.1z"/>
		<path fill="#456283" d="M15.1,8.7C15.1,8.7,15,8.7,15.1,8.7c-0.5,0-0.8-0.4-0.7-0.8c0.1-2.2-0.4-3.8-1.5-4.8
			c-1.8-1.7-4.6-1.3-4.6-1.3C7.9,1.9,7.5,1.6,7.4,1.2C7.4,0.8,7.7,0.4,8.1,0.3c0.1,0,3.5-0.4,5.8,1.7c1.4,1.3,2.1,3.4,1.9,6
			C15.8,8.4,15.5,8.7,15.1,8.7z"/>
	</g>
</g>
</svg>
