<?xml version="1.0" encoding="utf-8"?>
<!-- Generator: Adobe Illustrator 18.1.0, SVG Export Plug-In . SVG Version: 6.00 Build 0)  -->
<svg version="1.1" id="Layer_1" xmlns="http://www.w3.org/2000/svg" xmlns:xlink="http://www.w3.org/1999/xlink" x="0px" y="0px"
	 width="80px" height="52px" viewBox="0 0 80 52" enable-background="new 0 0 80 52" xml:space="preserve">
<g>
	<g>
		<g>
			<path fill="#ACC7CC" d="M28.8,37.6c-0.1,1.3-0.1,2.6-0.3,3.9h19.9v-7.4c0-2,1.4-3.7,3.3-4c0.3-2.8,1.1-6.1,3.3-8.4
				c1.9-2.1,4.4-3.2,7.4-3.2c2,0,3.7,0.5,5.3,1.4v-9.8c0-1-0.8-1.9-1.8-1.9H7.9c-1,0-1.8,0.8-1.8,1.9v8.6l6-0.5l0.3,0.1l17.1,1.3
				l-0.1,3.7C29.3,23.4,29.1,31.8,28.8,37.6z"/>
		</g>
		<path fill="#8EA9AD" d="M61.8,9.8c0.7-0.2,1.3-0.8,1.3-1.6c0-0.9-0.7-1.6-1.6-1.6c-0.9,0-1.6,0.7-1.6,1.6c0,0.8,0.5,1.4,1.3,1.6
			h-2.8c-0.2-0.5-0.4-1-0.4-1.6c0-1.9,1.6-3.5,3.5-3.5c1.9,0,3.5,1.6,3.5,3.5c0,0.6-0.1,1.1-0.4,1.6H61.8z"/>
		<path fill="#8EA9AD" d="M12.1,9.8c0.7-0.2,1.3-0.8,1.3-1.6c0-0.9-0.7-1.6-1.6-1.6c-0.9,0-1.6,0.7-1.6,1.6c0,0.8,0.5,1.4,1.3,1.6
			H8.6c-0.2-0.5-0.4-1-0.4-1.6c0-1.9,1.6-3.5,3.5-3.5c1.9,0,3.5,1.6,3.5,3.5c0,0.6-0.1,1.1-0.4,1.6H12.1z"/>
		<polygon fill="#8EA9AD" points="18.1,18.8 15.7,18.6 15.7,11.5 18.1,11.5 		"/>
		<polygon fill="#8EA9AD" points="23.8,19.2 21.4,19 21.4,11.5 23.8,11.5 		"/>
		<polygon fill="#8EA9AD" points="12.4,11.5 12.4,18.3 12.3,18.3 12.1,18.2 10,18.4 10,11.5 		"/>
		<rect x="32.8" y="11.5" fill="#8EA9AD" width="2.5" height="26.8"/>
		<rect x="44.2" y="11.5" fill="#8EA9AD" width="2.5" height="26.8"/>
		<rect x="38.5" y="11.5" fill="#8EA9AD" width="2.5" height="26.8"/>
		<polygon fill="#8EA9AD" points="29.5,11.5 29.5,19.7 29.5,19.7 29.5,19.6 27.1,19.5 27.1,11.5 		"/>
		<g>
			<path fill="#8EA9AD" d="M11.9,9.8c-0.7-0.2-1.3-0.8-1.3-1.6c0-0.9,0.7-1.6,1.6-1.6c0.9,0,1.6,0.7,1.6,1.6c0,0.8-0.5,1.4-1.3,1.6
				h2.8c0.2-0.5,0.4-1,0.4-1.6c0-1.9-1.6-3.5-3.5-3.5c-1.9,0-3.5,1.6-3.5,3.5c0,0.6,0.1,1.1,0.4,1.6H11.9z"/>
			<path fill="#8EA9AD" d="M61.7,9.8c-0.7-0.2-1.3-0.8-1.3-1.6c0-0.9,0.7-1.6,1.6-1.6c0.9,0,1.6,0.7,1.6,1.6c0,0.8-0.5,1.4-1.3,1.6
				h2.8c0.2-0.5,0.4-1,0.4-1.6c0-1.9-1.6-3.5-3.5-3.5c-1.9,0-3.5,1.6-3.5,3.5c0,0.6,0.1,1.1,0.4,1.6H61.7z"/>
			<g>
				<path fill="#ACC7CC" d="M44.9,37.6c-0.2-5.8-0.5-14.3-0.5-14.3l-0.1-3.7l17.1-1.3l0.3-0.1l6,0.5v-8.6c0-1-0.8-1.9-1.8-1.9H7.9
					c-1,0-1.8,0.8-1.8,1.9v29.6c0,1,0.8,1.9,1.8,1.9h37.3C45.1,40.2,45,38.9,44.9,37.6z"/>
			</g>
			<polygon fill="#8EA9AD" points="55.6,18.8 58,18.6 58,11.5 55.6,11.5 			"/>
			<polygon fill="#8EA9AD" points="49.9,19.2 52.3,19 52.3,11.5 49.9,11.5 			"/>
			<rect x="10" y="11.5" fill="#8EA9AD" width="2.5" height="26.8"/>
			<polygon fill="#8EA9AD" points="61.3,11.5 61.3,18.3 61.4,18.3 61.7,18.2 63.8,18.4 63.8,11.5 			"/>
			<rect x="21.4" y="11.5" fill="#8EA9AD" width="2.5" height="26.8"/>
			<rect x="15.7" y="11.5" fill="#8EA9AD" width="2.5" height="26.8"/>
			<rect x="38.5" y="11.5" fill="#8EA9AD" width="2.5" height="26.8"/>
			<rect x="27.1" y="11.5" fill="#8EA9AD" width="2.5" height="26.8"/>
			<rect x="32.8" y="11.5" fill="#8EA9AD" width="2.5" height="26.8"/>
			<polygon fill="#8EA9AD" points="44.2,11.5 44.2,19.7 44.3,19.7 44.3,19.6 46.6,19.5 46.6,11.5 			"/>
		</g>
		<g>
			<path fill="#8EA9AD" d="M62.4,18.5c0.5,0,0.9,0,1.4,0.1v-7.1h-2.5v7.1C61.6,18.5,62,18.5,62.4,18.5z"/>
		</g>
		<path fill="#8EA9AD" d="M58,19.4v-7.9h-2.5v9.6C56.3,20.4,57.1,19.8,58,19.4z"/>
		<path fill="#8EA9AD" d="M51.8,30.1c0.1-1.1,0.3-2.2,0.6-3.3V11.5h-2.5V31C50.4,30.5,51.1,30.2,51.8,30.1z"/>
	</g>
	<path fill="#E5C00A" d="M72.3,32.4h-1.6c0-2.4-0.3-6.5-2.6-9.1c-1.4-1.6-3.3-2.4-5.7-2.4c-2.3,0-4.2,0.8-5.6,2.4
		c-2.4,2.6-2.7,6.8-2.7,9.2h-1.6c-0.9,0-1.6,0.7-1.6,1.6v11.5c0,0.9,0.7,1.6,1.6,1.6h19.8c0.9,0,1.6-0.7,1.6-1.6V34.1
		C73.9,33.2,73.2,32.4,72.3,32.4z M59.3,25.5c0.8-0.9,1.8-1.3,3.1-1.3c1.4,0,2.4,0.4,3.2,1.3c1.5,1.7,1.8,4.9,1.8,6.9H57.4
		C57.4,30.4,57.7,27.2,59.3,25.5z M60.3,44l0.5-3.5c-1.1-0.6-1.7-1.6-1.7-2.8c0-1.8,1.5-3.3,3.3-3.3c1.8,0,3.3,1.4,3.3,3.2
		c0,1.2-0.7,2.3-1.7,2.8l0.5,3.5H60.3z"/>
</g>
</svg>
