<?xml version="1.0" encoding="utf-8"?>
<!-- Generator: Adobe Illustrator 18.1.0, SVG Export Plug-In . SVG Version: 6.00 Build 0)  -->
<svg version="1.1" id="Layer_1" xmlns="http://www.w3.org/2000/svg" xmlns:xlink="http://www.w3.org/1999/xlink" x="0px" y="0px"
	 width="80px" height="52px" viewBox="0 0 80 52" enable-background="new 0 0 80 52" xml:space="preserve">
<g>
	<g>
		<rect x="21.1" y="34" fill="#97B1B7" width="14.5" height="14.5"/>
		<g>
			<rect x="23.6" y="43.2" fill="#FFFFFF" width="4" height="0.4"/>
			<g>
				<path fill="#FFFFFF" d="M24,40.8h0.9v2H24V40.8z M24.5,38.9l-0.9,1.6h1.8L24.5,38.9z"/>
				<path fill="#FFFFFF" d="M26.3,40.8h0.9v2h-0.9V40.8z M26.8,38.9l-0.9,1.6h1.8L26.8,38.9z"/>
			</g>
		</g>
		<g>
			<path fill="#FFFFFF" d="M33.2,40.4c-0.4-0.9-1.3-1.5-2.3-1.5c-1,0-1.9,0.6-2.3,1.5H33.2z"/>
			<path fill="#FFFFFF" d="M31.5,43.6c-0.4,0-0.8-0.2-0.8-0.7c0-0.4,0-2.1,0-2.1l0.4,0c0,0,0,1.7,0,2.1c0,0.3,0.4,0.3,0.4,0.3
				c0.1,0,0.3-0.1,0.3-0.3h0.4C32.2,43.4,31.8,43.6,31.5,43.6z"/>
		</g>
	</g>
	<g>
		<rect x="54" y="36.5" fill="#ACC7CC" width="12" height="12"/>
		<g>
			<rect x="56.1" y="44.1" fill="#FFFFFF" width="3.3" height="0.4"/>
			<g>
				<path fill="#FFFFFF" d="M56.4,42.1h0.7v1.6h-0.7V42.1z M56.7,40.5L56,41.8h1.5L56.7,40.5z"/>
				<path fill="#FFFFFF" d="M58.3,42.1H59v1.6h-0.7V42.1z M58.7,40.5l-0.8,1.3h1.5L58.7,40.5z"/>
			</g>
		</g>
		<g>
			<path fill="#FFFFFF" d="M64,41.8c-0.3-0.7-1-1.3-1.9-1.3c-0.9,0-1.6,0.5-1.9,1.3H64z"/>
			<path fill="#FFFFFF" d="M62.6,44.5c-0.3,0-0.6-0.2-0.6-0.6c0-0.3,0-1.8,0-1.8l0.3,0c0,0,0,1.4,0,1.7c0,0.3,0.3,0.3,0.3,0.3
				c0.1,0,0.3-0.1,0.3-0.3h0.3C63.2,44.2,62.9,44.5,62.6,44.5z"/>
		</g>
	</g>
	<g>
		<rect x="31.8" y="21.1" fill="#678FB2" width="27.3" height="27.4"/>
		<g>
			<rect x="36.5" y="38.5" fill="#FFFFFF" width="7.5" height="0.8"/>
			<g>
				<path fill="#FFFFFF" d="M37.2,34h1.6v3.7h-1.6V34z M38,30.4l-1.7,3h3.4L38,30.4z"/>
				<path fill="#FFFFFF" d="M41.6,34h1.6v3.7h-1.6V34z M42.4,30.4l-1.7,3h3.4L42.4,30.4z"/>
			</g>
		</g>
		<g>
			<path fill="#FFFFFF" d="M54.5,33.2c-0.7-1.7-2.4-2.9-4.3-2.9c-1.9,0-3.6,1.2-4.3,2.9H54.5z"/>
			<path fill="#FFFFFF" d="M51.3,39.3c-0.7,0-1.5-0.5-1.5-1.3c0-0.7,0-4,0-4l0.8,0c0,0,0,3.2,0,4c0,0.6,0.7,0.6,0.7,0.6
				c0.2,0,0.6-0.2,0.6-0.6h0.8C52.7,38.8,51.9,39.3,51.3,39.3z"/>
		</g>
	</g>
	<path fill="#6CBCDD" d="M73.4,23.4C72.9,23,48,5,48,5c-0.3-0.3-0.7-0.5-1-0.8c-0.5-0.5-1.1-0.7-1.7-0.7c-0.5,0-0.9,0.2-1.4,0.5
		l-0.3,0.2L22.2,19.8c-0.3,0.2-0.6,0.4-0.9,0.6L21,20.6c-4.9,3.5-12.3,8.8-14,10.2c-1,0.8-1.3,1.6-0.9,2.7c0.7,1.9,1.5,1.9,1.8,1.9
		c0.4,0,0.8-0.2,1.2-0.6C9.9,34.2,43.5,10,44.9,9.2l0.4-0.2l0.4,0.2c1.8,1.1,23.7,17.1,24.9,18c0.4,0.3,0.9,0.5,1.3,0.5
		c0.6,0,1.2-0.3,1.5-0.9c0.3-0.5,0.5-1.1,0.5-1.8C74.1,24.3,73.9,23.8,73.4,23.4z"/>
</g>
</svg>
