<?xml version="1.0" encoding="utf-8"?>
<!-- Generator: Adobe Illustrator 18.1.0, SVG Export Plug-In . SVG Version: 6.00 Build 0)  -->
<svg version="1.1" id="Layer_1" xmlns="http://www.w3.org/2000/svg" xmlns:xlink="http://www.w3.org/1999/xlink" x="0px" y="0px"
	 width="80px" height="52px" viewBox="0 0 80 52" enable-background="new 0 0 80 52" xml:space="preserve">
<g>
	<path fill="#97B1B7" d="M72.3,29.8v-1.7h7.2c0.3-0.9,0.4-1.5,0.4-1.5c0.2-1-0.5-1.7-1.4-1.7c0,0-13.1,0-17.5,0c-1,0-1.4,0.5-1.6,1
		c-0.6,1.4-1.9,3.8-2.7,5c-1,1.6-4.4,1.3-22,1.5c-10.2,0.1-14.2,0.2-16.8,0.2c-1.4,0-2.2-0.2-2.4-0.6c-0.2-0.4-0.2-0.8-0.3-1.4
		c-0.2-1.5-0.2-2-0.2-2c-0.1-1-1-1.8-1.9-1.8H1.9c-1,0-1.9,0.6-1.9,1.5c0,0.6,0.1,1.2,0.9,2.6c1.2,2.2,2.4,2.2,2.9,7.2
		c0.1,1.6,0.2,2.7,0.3,3.5c0.1,1.5,1,1.8,1.6,1.9c0.6,0.1,1.3,0.2,1.8,0.2c0,0,44.1,0,51.5,0s9.3-0.6,14-4.8c3-2.7,4.9-6.5,6-9.1
		H72.3z M24.2,36.4c-0.6,0-1-0.4-1-1c0-0.6,0.4-1,1-1c0.6,0,1,0.4,1,1C25.2,36,24.8,36.4,24.2,36.4z M30,36.4c-0.6,0-1-0.4-1-1
		c0-0.6,0.4-1,1-1c0.6,0,1,0.4,1,1C31,36,30.5,36.4,30,36.4z M35.7,36.4c-0.6,0-1-0.4-1-1c0-0.6,0.4-1,1-1c0.6,0,1,0.4,1,1
		C36.7,36,36.3,36.4,35.7,36.4z M41.5,36.4c-0.6,0-1-0.4-1-1c0-0.6,0.4-1,1-1c0.6,0,1,0.4,1,1C42.5,36,42.1,36.4,41.5,36.4z
		 M47.3,36.4c-0.6,0-1-0.4-1-1c0-0.6,0.4-1,1-1c0.6,0,1,0.4,1,1C48.3,36,47.8,36.4,47.3,36.4z M53,36.4c-0.6,0-1-0.4-1-1
		c0-0.6,0.4-1,1-1c0.6,0,1,0.4,1,1C54,36,53.6,36.4,53,36.4z"/>
	<path fill="#466283" d="M58.8,24.2l-0.1-0.9h6.7v-2.2h-9v5.7h1.1C58.2,25.6,58.7,24.5,58.8,24.2z"/>
	<rect x="46.4" y="14.3" fill="#466283" width="9" height="5.7"/>
	<path fill="#466283" d="M57,28h-0.5v0.9C56.6,28.6,56.8,28.3,57,28z"/>
	<rect x="66.5" y="21.1" fill="#466283" width="9" height="2.2"/>
	<rect x="56.4" y="14.3" fill="#5078A0" width="9" height="5.7"/>
	<rect x="36.3" y="21.1" fill="#466283" width="9" height="5.7"/>
	<path fill="#5078A0" d="M40.1,30.8c2,0,3.7,0,5.2-0.1V28h-9v2.9L40.1,30.8z"/>
	<path fill="#466283" d="M55.4,30.1V28h-9v2.7C51.5,30.7,54.3,30.5,55.4,30.1z"/>
	<rect x="46.4" y="21.1" fill="#5078A0" width="9" height="5.7"/>
	<path fill="#97B1B7" d="M19.1,12.7v-2.4h2.9v-0.1c0-1-0.8-1.8-1.8-1.8h-10c-1,0-1.8,0.8-1.8,1.8v0.1h1.9v1.3H8.5v5.3h13.6v-4.2
		H19.1z M14.1,11.6h-2.4v-1.3h2.4V11.6z M17.8,11.6h-2.4v-1.3h2.4V11.6z"/>
	<path fill="#97B1B7" d="M24.6,23v-3h3.5c0-1-0.8-1.8-1.8-1.8H6.6c-1,0-1.8,0.8-1.8,1.8h3.9v1.7H4.9v1.8c0,1,0.8,1.8,1.8,1.8h7.7
		c1.4,0,1.8,0.2,1.9,0.9c0.1,0.4,0.1,0.7,0.2,1.7c0,0,0.1,0.7,0.2,1.5c0.1,0.8,0.5,1.4,1.1,1.4c1.1,0.1,1.9,0.1,2.9,0.1h5.8
		c1,0,1.8-0.8,1.8-1.8V23H24.6z M13.6,21.7h-3.1V20h3.1V21.7z M18.2,21.7h-3.1V20h3.1V21.7z M22.9,21.7h-3.1V20h3.1V21.7z"/>
</g>
</svg>
