<?xml version="1.0" encoding="utf-8"?>
<!-- Generator: Adobe Illustrator 18.1.0, SVG Export Plug-In . SVG Version: 6.00 Build 0)  -->
<svg version="1.1" id="Layer_1" xmlns="http://www.w3.org/2000/svg" xmlns:xlink="http://www.w3.org/1999/xlink" x="0px" y="0px"
	 width="80px" height="52px" viewBox="0 0 80 52" enable-background="new 0 0 80 52" xml:space="preserve">
<g>
	<g>
		<path fill="#ACC7CC" d="M52.3,21H17.9c-0.2,0-0.4,0-0.5,0.1c-0.2,0.1-0.4,0.3-0.6,0.4c-0.2,0.3-0.3,0.6-0.3,0.9v23.4
			c0,0.8,0.7,1.5,1.5,1.5h45.8c0.8,0,1.5-0.7,1.5-1.5V30.4C61.7,27.8,57,24.4,52.3,21z"/>
		<path fill="#ACC7CC" d="M65.2,24.8v-2.3c0-0.8-0.7-1.5-1.5-1.5h-3.8C61.6,22.2,63.4,23.5,65.2,24.8z"/>
	</g>
	<path fill="#97B1B7" d="M41,49.1c9.5,0,19,0,28.5,0c1,0,1.2,0.3,1.2,1.3c0,1-0.2,1.4-1.3,1.4c-5-0.2-10-0.2-15-0.1
		c-14.1,0.1-28.2,0-42.3,0.1c-1.3,0-1-0.7-1-1.4C11,49.5,11,49,12.1,49C21.7,49.1,31.3,49.1,41,49.1z"/>
	<path fill="#8EA9AD" d="M21,22.3c-0.6-0.1-1-0.6-1-1.2c0-0.7,0.6-1.3,1.3-1.3c0.7,0,1.3,0.6,1.3,1.3c0,0.6-0.4,1.1-1,1.2h2.2
		c0.2-0.4,0.3-0.8,0.3-1.2c0-1.5-1.2-2.8-2.8-2.8c-1.5,0-2.8,1.2-2.8,2.8c0,0.5,0.1,0.9,0.3,1.2H21z"/>
	<rect x="19.5" y="23.6" fill="#8EA9AD" width="2" height="21.2"/>
	<rect x="24" y="23.6" fill="#8EA9AD" width="2" height="21.2"/>
	<rect x="28.5" y="23.6" fill="#8EA9AD" width="2" height="21.2"/>
	<rect x="33" y="23.6" fill="#8EA9AD" width="2" height="21.2"/>
	<rect x="37.5" y="23.6" fill="#8EA9AD" width="2" height="21.2"/>
	<rect x="42.1" y="23.6" fill="#8EA9AD" width="2" height="21.2"/>
	<rect x="46.6" y="23.6" fill="#8EA9AD" width="2" height="21.2"/>
	<rect x="51.1" y="23.6" fill="#8EA9AD" width="2" height="21.2"/>
	<path fill="#E5C00A" d="M7.1,19.9c0.5-0.4,25-18.2,25-18.2c0.3-0.3,0.7-0.5,1-0.8c0.5-0.4,1.1-0.7,1.6-0.7c0.5,0,0.9,0.2,1.3,0.5
		L36.4,1l21.1,15.4c0.3,0.2,0.6,0.4,0.9,0.6l0.3,0.2c4.8,3.4,12.1,8.7,13.8,10c1,0.8,1.2,1.6,0.9,2.7c-0.6,1.9-1.5,1.9-1.8,1.9
		c-0.4,0-0.8-0.2-1.2-0.6C69.7,30.5,36.5,6.7,35.1,5.9l-0.4-0.2l-0.4,0.2C32.6,7,11,22.8,9.8,23.7c-0.4,0.3-0.9,0.5-1.3,0.5
		c-0.6,0-1.2-0.3-1.5-0.8c-0.3-0.4-0.5-1.1-0.5-1.8C6.4,20.8,6.6,20.3,7.1,19.9z"/>
	<path fill="#8EA9AD" d="M60.1,26.7v18.1h2V28.1C61.4,27.7,60.8,27.2,60.1,26.7z"/>
	<path fill="#8EA9AD" d="M55.8,23.6h-0.2v21.2h2v-20C57,24.4,56.4,24,55.8,23.6z"/>
</g>
</svg>
