<?xml version="1.0" encoding="utf-8"?>
<!-- Generator: Adobe Illustrator 18.1.0, SVG Export Plug-In . SVG Version: 6.00 Build 0)  -->
<svg version="1.1" id="Layer_1" xmlns="http://www.w3.org/2000/svg" xmlns:xlink="http://www.w3.org/1999/xlink" x="0px" y="0px"
	 width="483px" height="214px" viewBox="0 0 483 214" enable-background="new 0 0 483 214" xml:space="preserve">
<g>
	<g>
		<path fill="#FFFFFF" d="M60,1.3h10.1c4.7,0,8.1,0.7,10.3,2.1c2.1,1.4,3.2,3.7,3.2,6.7c0,2.1-0.6,3.9-1.8,5.2s-2.9,2.3-5.2,2.7v0.2
			c5.4,0.9,8.1,3.8,8.1,8.5c0,3.2-1.1,5.7-3.3,7.5c-2.2,1.8-5.2,2.7-9,2.7H60V1.3z M64.1,4.9v11.7H71c2.9,0,5-0.5,6.3-1.4
			c1.3-0.9,1.9-2.4,1.9-4.5s-0.7-3.6-2.1-4.5c-1.4-0.9-3.7-1.3-6.8-1.3H64.1z M64.1,20.1v13.4h7.4c2.9,0,5.1-0.6,6.5-1.7
			c1.4-1.1,2.2-2.8,2.2-5.1c0-2.3-0.7-3.9-2.2-5c-1.5-1-3.8-1.6-6.8-1.6H64.1z"/>
		<path fill="#FFFFFF" d="M102,9.8c1.2,0,2.2,0.1,3.2,0.3l-0.6,3.8c-1.1-0.2-2.1-0.4-2.9-0.4c-2.2,0-4,0.9-5.6,2.6
			c-1.5,1.8-2.3,3.9-2.3,6.6V37h-4.1V10.3h3.3l0.5,5h0.2c1-1.8,2.2-3.1,3.6-4C98.8,10.2,100.3,9.8,102,9.8z"/>
		<path fill="#FFFFFF" d="M107.8,3c0-0.9,0.2-1.6,0.7-2c0.4-0.4,1-0.7,1.7-0.7s1.3,0.2,1.7,0.7c0.5,0.5,0.7,1.1,0.7,2
			s-0.2,1.6-0.7,2c-0.5,0.5-1,0.7-1.7,0.7s-1.3-0.2-1.7-0.7S107.8,3.9,107.8,3z M112.2,37h-4.1V10.3h4.1V37z"/>
		<path fill="#FFFFFF" d="M131.5,9.8c3.3,0,5.7,0.8,7.3,2.4c1.6,1.6,2.4,4.1,2.4,7.4V37h-4.1V19.7c0-2.2-0.5-3.8-1.5-4.9
			c-1-1.1-2.6-1.6-4.7-1.6c-2.8,0-4.9,0.8-6.2,2.3c-1.3,1.5-1.9,4-1.9,7.5v14h-4.1V10.3h3.3l0.7,3.7h0.2c0.8-1.3,2-2.3,3.5-3.1
			C127.9,10.1,129.6,9.8,131.5,9.8z"/>
		<path fill="#FFFFFF" d="M155.3,32.8h4.7c2.9,0,5.1,0.6,6.7,1.8c1.6,1.2,2.3,3,2.3,5.3c0,3-1.2,5.2-3.6,6.8
			c-2.4,1.6-5.8,2.3-10.4,2.3c-3.5,0-6.2-0.7-8.1-2c-1.9-1.3-2.8-3.1-2.8-5.5c0-1.6,0.5-3,1.6-4.2c1.1-1.2,2.5-2,4.4-2.4
			c-0.7-0.3-1.3-0.8-1.7-1.5c-0.4-0.7-0.7-1.4-0.7-2.3s0.3-1.7,0.8-2.5c0.5-0.7,1.3-1.5,2.5-2.1c-1.4-0.6-2.5-1.5-3.4-2.9
			c-0.9-1.4-1.3-2.9-1.3-4.7c0-2.9,0.9-5.2,2.6-6.8c1.8-1.6,4.2-2.4,7.5-2.4c1.4,0,2.6,0.2,3.8,0.5h9.3v2.6l-5,0.6
			c1.2,1.5,1.8,3.3,1.8,5.3c0,2.6-0.9,4.7-2.7,6.3c-1.8,1.6-4.2,2.3-7.4,2.3c-0.7,0-1.5-0.1-2.2-0.2c-1.7,0.9-2.6,2-2.6,3.4
			c0,0.7,0.3,1.3,0.9,1.6S153.9,32.8,155.3,32.8z M158.8,36.4h-4.9c-1.9,0-3.3,0.4-4.3,1.3s-1.5,2.1-1.5,3.6c0,3,2.4,4.6,7.1,4.6
			c3.3,0,5.8-0.5,7.5-1.5c1.7-1,2.5-2.4,2.5-4.2c0-1.5-0.4-2.5-1.3-3C162.9,36.7,161.2,36.4,158.8,36.4z M156.2,12.8
			c-1.9,0-3.4,0.5-4.4,1.5s-1.5,2.5-1.5,4.4s0.5,3.4,1.6,4.3c1.1,1,2.5,1.5,4.4,1.5c4,0,5.9-1.9,5.9-5.8
			C162.2,14.8,160.2,12.8,156.2,12.8z"/>
		<path fill="#FFFFFF" d="M172.6,3c0-0.9,0.2-1.6,0.7-2c0.4-0.4,1-0.7,1.7-0.7c0.7,0,1.3,0.2,1.7,0.7c0.5,0.5,0.7,1.1,0.7,2
			s-0.2,1.6-0.7,2c-0.5,0.5-1,0.7-1.7,0.7c-0.7,0-1.3-0.2-1.7-0.7S172.6,3.9,172.6,3z M177,37h-4.1V10.3h4.1V37z"/>
		<path fill="#FFFFFF" d="M196.2,9.8c3.3,0,5.7,0.8,7.3,2.4c1.6,1.6,2.4,4.1,2.4,7.4V37h-4.1V19.7c0-2.2-0.5-3.8-1.5-4.9
			c-1-1.1-2.6-1.6-4.7-1.6c-2.8,0-4.9,0.8-6.2,2.3c-1.3,1.5-1.9,4-1.9,7.5v14h-4.1V10.3h3.3l0.7,3.7h0.2c0.8-1.3,2-2.3,3.5-3.1
			C192.7,10.1,194.3,9.8,196.2,9.8z"/>
		<path fill="#FFFFFF" d="M220,32.8h4.7c2.9,0,5.1,0.6,6.7,1.8c1.6,1.2,2.3,3,2.3,5.3c0,3-1.2,5.2-3.6,6.8
			c-2.4,1.6-5.8,2.3-10.4,2.3c-3.5,0-6.2-0.7-8.1-2c-1.9-1.3-2.8-3.1-2.8-5.5c0-1.6,0.5-3,1.6-4.2c1-1.2,2.5-2,4.4-2.4
			c-0.7-0.3-1.3-0.8-1.7-1.5c-0.4-0.7-0.7-1.4-0.7-2.3s0.3-1.7,0.8-2.5c0.5-0.7,1.3-1.5,2.5-2.1c-1.4-0.6-2.5-1.5-3.4-2.9
			c-0.9-1.4-1.3-2.9-1.3-4.7c0-2.9,0.9-5.2,2.6-6.8c1.8-1.6,4.2-2.4,7.5-2.4c1.4,0,2.6,0.2,3.8,0.5h9.3v2.6l-5,0.6
			c1.2,1.5,1.8,3.3,1.8,5.3c0,2.6-0.9,4.7-2.7,6.3c-1.8,1.6-4.2,2.3-7.4,2.3c-0.7,0-1.5-0.1-2.2-0.2c-1.7,0.9-2.6,2-2.6,3.4
			c0,0.7,0.3,1.3,0.9,1.6C217.6,32.6,218.6,32.8,220,32.8z M223.5,36.4h-4.9c-1.9,0-3.3,0.4-4.3,1.3c-1,0.9-1.5,2.1-1.5,3.6
			c0,3,2.4,4.6,7.1,4.6c3.3,0,5.8-0.5,7.5-1.5c1.7-1,2.5-2.4,2.5-4.2c0-1.5-0.4-2.5-1.3-3C227.6,36.7,226,36.4,223.5,36.4z
			 M220.9,12.8c-1.9,0-3.4,0.5-4.4,1.5c-1,1-1.5,2.5-1.5,4.4s0.5,3.4,1.6,4.3c1,1,2.5,1.5,4.4,1.5c4,0,5.9-1.9,5.9-5.8
			C226.9,14.8,224.9,12.8,220.9,12.8z"/>
	</g>
	<g>
		<path fill="#FFFFFF" d="M16.7,60.9H33v6.6H16.7v33c0,3.3,0.8,5.9,2.4,7.8c1.6,1.8,3.8,2.7,6.5,2.7c2.8,0,5.4-0.3,7.8-1v6.6
			c-0.8,0.4-2.2,0.8-4,1c-1.8,0.3-3.5,0.4-4.9,0.4c-10.9,0-16.3-5.7-16.3-17.2V67.5h-8v-4.1l8-3.5l3.6-12h4.9V60.9z"/>
		<path fill="#FFFFFF" d="M48.9,37.4v24.1c0,2.8-0.1,5.2-0.4,7.2H49c1.7-2.7,4.1-4.9,7.2-6.4c3.1-1.5,6.6-2.3,10.5-2.3
			c6.9,0,12.1,1.7,15.5,5c3.4,3.3,5.1,8.5,5.1,15.5V117h-8.5V80.7c0-4.6-1-8-3.1-10.2c-2.1-2.2-5.4-3.3-9.8-3.3
			c-6,0-10.3,1.6-13,4.8c-2.7,3.2-4,8.4-4,15.7V117h-8.5V37.4H48.9z"/>
		<path fill="#FFFFFF" d="M124.3,118.1c-8.3,0-14.8-2.5-19.7-7.6c-4.8-5.1-7.2-12.1-7.2-21.1c0-9,2.2-16.2,6.7-21.5
			c4.5-5.3,10.3-8,17.6-8s13,2.3,17,7c4.1,4.5,6.1,10.6,6.1,18.2v5.4h-38.7c0.2,6.6,1.8,11.5,5,15c3.1,3.4,7.7,5.1,13.6,5.1
			c5.9,0,11.8-1.3,17.7-3.8v7.6c-3,1.3-5.8,2.2-8.5,2.8C131.2,117.8,128,118.1,124.3,118.1z M135.8,83.6c0-5.3-1.2-9.4-3.6-12.3
			c-2.4-2.8-5.8-4.3-10.3-4.3c-4.5,0-8,1.5-10.7,4.4c-2.7,2.9-4.3,7-4.8,12.2H135.8z"/>
		<path fill="#FFFFFF" d="M234.2,117h-10.1l-10.3-32.9c-0.5-1.5-1.7-6-3.6-13.7h-0.4c-1.4,6.2-2.6,10.8-3.6,13.8L195.6,117h-9.8
			l-15.3-56.1h8.9c4.1,15.8,6.8,26.5,8.2,32.2c1.9,7.6,3,12.5,3.3,14.9h0.4c0.3-1.7,0.9-4.3,1.8-7.6s1.6-5.8,2.2-7.3l10.3-32.2h9.2
			l10,32.2c2,6.1,3.3,11,3.9,14.8h0.4c0.2-1.2,0.5-2.9,1-5c0.5-2.1,4.1-16.1,10.8-42h8.8L234.2,117z"/>
		<path fill="#FFFFFF" d="M252.5,88.9c0-9.1,2.3-16.3,6.8-21.4c4.6-5.1,10.8-7.7,18.8-7.7c8,0,14.3,2.6,18.9,7.8
			c4.7,5.2,7,12.3,7,21.4c0,9-2.3,16.1-6.9,21.3c-4.6,5.1-11,7.7-19.1,7.7c-0.1,0-0.3,0-0.4,0c-7.4,0-13.4-2.6-18.1-7.9
			c-4.7-5.3-7-12.1-7-20.5C252.5,89.4,252.5,89.2,252.5,88.9z M278.1,67.2c-11.2,0-16.8,7.3-16.8,21.8c0,7.2,1.4,12.6,4.3,16.4
			c2.9,3.8,7.1,5.6,12.6,5.6s9.8-1.9,12.6-5.6c2.9-3.7,4.3-9.2,4.3-16.4c0-7.2-1.4-12.6-4.3-16.3C288,69,283.8,67.2,278.1,67.2z"/>
		<path fill="#FFFFFF" d="M340.4,59.9c2.5,0,4.7,0.2,6.7,0.6l-1.2,7.9c-2.3-0.5-4.4-0.8-6.1-0.8c-4.6,0-8.5,1.8-11.7,5.5
			c-3.2,3.7-4.8,8.3-4.8,13.8V117h-8.5V60.9h7l1,10.4h0.4c2.1-3.7,4.6-6.5,7.6-8.5C333.7,60.9,336.9,59.9,340.4,59.9z"/>
		<path fill="#FFFFFF" d="M361.9,117h-8.5V37.4h8.5V117z"/>
		<path fill="#FFFFFF" d="M422,117H415l-1.1-7.5h-0.5c-4,5.7-9.7,8.6-17.3,8.6c-7.6,0-13.4-2.5-17.5-7.5c-4.1-5.1-6.1-12.2-6.1-21.4
			c0-9.2,2-16.4,6.1-21.5c4.1-5.1,9.9-7.7,17.3-7.7c7.5,0,13.2,2.8,17.3,8.3h0.7l-0.4-4l-0.2-3.9V37.4h8.5V117z M413.5,90.9v-1.8
			c0-8-1.3-13.6-4-17c-2.6-3.4-6.8-5.1-12.6-5.1c-5,0-8.8,1.9-11.4,5.8c-2.6,3.8-4,9.3-4,16.5c0,7.1,1.3,12.5,3.9,16.2
			c2.6,3.7,6.5,5.5,11.6,5.5c5.8,0,10-1.6,12.6-4.7C412.2,103,413.5,97.9,413.5,90.9z"/>
	</g>
	<g>
		<path fill="#6BBCDE" d="M217.2,134.5h15.4v11.3h-15.4v26.5c0,2.1,0.6,3.6,1.7,4.7c1.2,1,2.9,1.6,5.2,1.6s5.3-0.6,9-1.7V188
			c-3.7,1.7-8.5,2.5-14.1,2.5c-5.7,0-9.9-1.5-12.7-4.5c-2.8-3-4.2-7.6-4.2-13.7v-26.5H195v-6.3l8.3-5l4.3-11.6h9.6V134.5z"/>
		<path fill="#6BBCDE" d="M264.1,133.5c5,0,9.6,1.1,13.5,3.4c4,2.3,7.1,5.6,9.2,9.8c2.2,4.3,3.3,9.2,3.3,14.7c0,0.2,0,0.3,0,0.5
			c0,9-2.4,16-7.1,21c-4.7,5-11.3,7.6-19.7,7.6c-0.1,0-0.3,0-0.4,0c-5,0-9.6-1.2-13.5-3.5c-4-2.3-7.1-5.6-9.2-9.9
			c-2.2-4.3-3.3-9.2-3.3-14.7c0-0.2,0-0.3,0-0.5c0-9,2.3-15.9,7-20.9c4.7-5,11.3-7.5,19.8-7.5C263.8,133.5,264,133.5,264.1,133.5z
			 M272.2,149.6c-1.8-2.7-4.7-4-8.7-4s-6.8,1.3-8.6,4c-1.8,2.7-2.7,6.8-2.7,12.3s0.9,9.7,2.7,12.4c1.8,2.7,4.7,4.1,8.7,4.1
			c4,0,6.8-1.4,8.6-4.1c1.8-2.7,2.7-6.9,2.7-12.4S274,152.2,272.2,149.6z"/>
		<path fill="#6BBCDE" d="M324,213.7c-2.5,0-5-0.3-7.6-0.8v-11.9c1.7,0.4,3.7,0.6,5.9,0.6c5.5,0,9.4-3.3,11.6-9.8l0.9-2.7
			l-21.8-54.6h16.4l10.4,30.9c0.9,2.7,1.5,5.8,1.8,9.5h0.3c0.3-3.2,1-6.4,2.1-9.5l10.2-30.9h16.1l-23.3,62c-2.1,5.7-5.2,10-9.1,12.8
			C333.9,212.2,329.3,213.7,324,213.7z"/>
		<path fill="#6BBCDE" d="M397.9,133.5c5,0,9.6,1.1,13.5,3.4c4,2.3,7.1,5.6,9.2,9.8c2.2,4.3,3.3,9.2,3.3,14.7c0,0.2,0,0.3,0,0.5
			c0,9-2.4,16-7.1,21c-4.7,5-11.3,7.6-19.7,7.6c-0.1,0-0.3,0-0.4,0c-5,0-9.6-1.2-13.5-3.5c-4-2.3-7.1-5.6-9.2-9.9
			c-2.2-4.3-3.3-9.2-3.3-14.7c0-0.2,0-0.3,0-0.5c0-9,2.3-15.9,7-20.9c4.7-5,11.3-7.5,19.8-7.5C397.6,133.5,397.7,133.5,397.9,133.5z
			 M405.9,149.6c-1.8-2.7-4.7-4-8.7-4s-6.8,1.3-8.6,4c-1.8,2.7-2.7,6.8-2.7,12.3s0.9,9.7,2.7,12.4c1.8,2.7,4.7,4.1,8.7,4.1
			c4,0,6.8-1.4,8.6-4.1c1.8-2.7,2.7-6.9,2.7-12.4S407.7,152.2,405.9,149.6z"/>
		<path fill="#6BBCDE" d="M482.8,189.5h-11.5l-2-7h-0.8c-1.6,2.6-3.9,4.5-6.8,5.9c-3,1.4-6.3,2.1-10.1,2.1c-6.4,0-11.3-1.7-14.6-5.2
			s-4.9-8.4-4.9-15v-35.9h15v32.1c0,4,0.7,7,2.1,9c1.4,2,3.7,3,6.7,3c4.2,0,7.2-1.4,9.1-4.2c1.9-2.8,2.8-7.4,2.8-14v-25.9h15V189.5z
			"/>
	</g>
</g>
</svg>
