<svg width="30" height="18" viewBox="0 0 30 18" fill="none" xmlns="http://www.w3.org/2000/svg">
<path d="M8.81117 18C3.97123 18 0 14.0143 0 9C0 3.98571 3.97123 0 8.81117 0C10.9209 0 13.0306 0.771429 14.6439 2.18571L12.4101 4.75714C11.4173 3.85714 10.1763 3.47143 8.81117 3.47143C5.83274 3.47143 3.35073 5.91429 3.35073 9C3.35073 12.0857 5.83274 14.5286 8.81117 14.5286C11.2932 14.5286 13.0306 13.2429 13.527 11.0571H8.81117V7.45714H17.1259V9.25714C17.1259 14.4 13.7752 18 8.81117 18Z" fill="white"/>
<path d="M30 6.68574H26.284V2.40002H23.1254V6.68574H19.4094V10.3286H23.1254V14.8286H26.284V10.3286H30V6.68574Z" fill="white"/>
</svg>
