<?xml version="1.0" encoding="utf-8"?>
<!-- Generator: Adobe Illustrator 18.1.0, SVG Export Plug-In . SVG Version: 6.00 Build 0)  -->
<svg version="1.1" id="Layer_1" xmlns="http://www.w3.org/2000/svg" xmlns:xlink="http://www.w3.org/1999/xlink" x="0px" y="0px"
	 width="80px" height="52px" viewBox="0 0 80 52" enable-background="new 0 0 80 52" xml:space="preserve">
<g>
	<path fill="#C9A50D" d="M66.8,28.4l-0.7-1.1c-0.3-0.5-1-0.6-1.4-0.3l-0.3,0.2c0.7,1.3,1.1,2.4,1.4,3.5l0.7-0.9
		C67,29.5,67.1,28.9,66.8,28.4z"/>
	<path fill="#E5C00A" d="M61.8,24.9c-3.2,2-6.6,3.9-10,5.8c6.4,3.4,13.3,7.2,13.3,7.2S67.5,33.1,61.8,24.9
		C61.8,24.9,61.8,24.9,61.8,24.9z"/>
	<path fill="#97B1B7" d="M77.2,5.6c-1-0.1-2.3,0.1-3.6,0.6c0,0,0,0,0,0c0,0-3.5,1.4-6,2.6c-2.5,1.2-1.3-1-1.3-1s1.7-1.1,4.2-1.6
		c-0.4,0-0.9,0.1-1.3,0.2c-3.7,0.7-4.7,1.2-13.7,7.4c-0.4,0.3-0.9,0.6-1.4,1c1.5,0,3-0.1,4.3-0.1l1.7-0.1l-0.9,1.5
		c-0.1,0.2-3.3,5.3-7.7,8.9c-4.3,3.5-7.9,4.3-8.3,4.4l-0.2,0l-8.3-2.4c-7.6,4.7-14.1,8.6-14.1,8.6L6,35.3l-4.5,1.9
		c0,0,6.9,5.3,11.2,6.9l1,1.5c0.5,0.8,1.7,1.1,2.5,0.6l3.8-2.4c3.9-1.2,9.1-3.6,15.4-6.6c9.3-4.4,21.3-10.2,31.1-16.7c0,0,0,0,0,0
		C77.9,14.3,80.3,6.1,77.2,5.6z"/>
	<path fill="#C9A50D" d="M38.9,14.7C38.9,14.7,38.9,14.7,38.9,14.7l-1.4-1.8c-0.6-0.8-1.8-0.9-2.5-0.3l-2.8,2.2
		C34.2,14.7,36.5,14.7,38.9,14.7z"/>
	<path fill="#E5C00A" d="M58.4,15.4c0,0-3.2,5.2-7.5,8.7c-4.4,3.5-7.9,4.2-7.9,4.2l-25-7.2c0,0,2-3.3,8.7-4.9
		C33.3,14.8,49.8,15.8,58.4,15.4z"/>
</g>
</svg>
