<?xml version="1.0" encoding="utf-8"?>
<!-- Generator: Adobe Illustrator 18.1.0, SVG Export Plug-In . SVG Version: 6.00 Build 0)  -->
<svg version="1.1" id="Layer_1" xmlns="http://www.w3.org/2000/svg" xmlns:xlink="http://www.w3.org/1999/xlink" x="0px" y="0px"
	 width="80px" height="52px" viewBox="0 0 80 52" enable-background="new 0 0 80 52" xml:space="preserve">
<g>
	<path fill="#97B1B7" d="M27.8,33.2c-2.8,0-5.1,2.3-5.1,5.1c0,2.8,2.3,5.1,5.1,5.1c2.8,0,5.1-2.3,5.1-5.1
		C32.8,35.4,30.6,33.2,27.8,33.2z M27.8,41.8c-2,0-3.5-1.6-3.5-3.5c0-2,1.6-3.5,3.5-3.5c2,0,3.5,1.6,3.5,3.5
		C31.3,40.2,29.7,41.8,27.8,41.8z"/>
	<path fill="#97B1B7" d="M62.1,33.2c-2.8,0-5.1,2.3-5.1,5.1c0,2.8,2.3,5.1,5.1,5.1c2.8,0,5.1-2.3,5.1-5.1
		C67.2,35.4,64.9,33.2,62.1,33.2z M62.1,41.8c-2,0-3.5-1.6-3.5-3.5c0-2,1.6-3.5,3.5-3.5c2,0,3.5,1.6,3.5,3.5
		C65.6,40.2,64.1,41.8,62.1,41.8z"/>
	<path fill="#97B1B7" d="M16,33.2c-2.8,0-5.1,2.3-5.1,5.1c0,2.8,2.3,5.1,5.1,5.1c2.8,0,5.1-2.3,5.1-5.1C21,35.4,18.8,33.2,16,33.2z
		 M16,41.8c-2,0-3.5-1.6-3.5-3.5c0-2,1.6-3.5,3.5-3.5s3.5,1.6,3.5,3.5C19.5,40.2,17.9,41.8,16,41.8z"/>
	<path fill="#6CBCDD" d="M46.2,8.7H10c-1.3,0-2.4,1.1-2.4,2.4v24.7c0,0.7,0.2,1.4,0.7,1.7c1.1,0.7,1.4-0.6,1.6-1.2
		c0.8-2.6,3.2-4.4,6.1-4.4c1.9,0,3.6,0.8,4.7,2.1c0.5,0.5,1.8,0.6,2.3,0.1c1.2-1.3,2.9-2.2,4.8-2.2c2.9,0,5.3,1.9,6.1,4.5
		c0.4,1.1,1.4,1.8,2.1,1.8c2.7,0,10.3,0,10.3,0c1.3,0,2.4-1.1,2.4-2.4V11.1C48.6,9.8,47.5,8.7,46.2,8.7z"/>
	<path fill="#678FB2" d="M71.8,33.8c-0.2-6-2.8-5.3-4.5-9.3c-3.4-8.4-6.6-9.5-11.1-9.5c-2.5,0-3.9,0-3.9,0c-1.2,0-1.8,1.2-1.8,2.5
		v18.4c0,1.3,1.1,2.4,2.4,2.4c0,0,0.6,0,1.5,0c0.9,0,1.5-1,1.6-1.4c0.7-2.8,3.2-4.9,6.2-4.9c2.8,0,5.2,1.9,6.1,4.4
		c0.4,1.1,1.2,1.5,1.6,1.4c0.8-0.1,1.1-0.6,1.4-1.1c0.7-0.1,1.2-0.8,1.2-1.6C72.4,34.6,72.1,34.1,71.8,33.8z M62.7,25.4H55
		c-1.3,0-2.4-1.1-2.4-2.4v-3.3c0-1.3,0.8-2.4,2.1-2.4h0.8c1.3,0,2.2,0,3.7,0.2c1.1,0.2,2.1,0.8,3.9,3.3c1,1.4,1.3,2.3,1.5,3.3
		C64.6,24.9,64,25.4,62.7,25.4z"/>
	<g>
		<rect x="15.7" y="34.8" fill="#97B1B7" width="0.6" height="6.9"/>
		
			<rect x="15.7" y="34.8" transform="matrix(0.7071 0.7071 -0.7071 0.7071 31.7139 -9.730594e-002)" fill="#97B1B7" width="0.6" height="6.9"/>
		<rect x="12.5" y="37.9" fill="#97B1B7" width="6.9" height="0.6"/>
		
			<rect x="15.7" y="34.8" transform="matrix(-0.7071 0.7071 -0.7071 -0.7071 54.3051 53.9729)" fill="#97B1B7" width="0.6" height="6.9"/>
	</g>
	<g>
		<rect x="27.5" y="34.8" fill="#97B1B7" width="0.6" height="6.9"/>
		
			<rect x="27.5" y="34.8" transform="matrix(0.7071 0.7071 -0.7071 0.7071 35.1731 -8.4486)" fill="#97B1B7" width="0.6" height="6.9"/>
		<rect x="24.3" y="37.9" fill="#97B1B7" width="6.9" height="0.6"/>
		
			<rect x="27.5" y="34.8" transform="matrix(-0.7071 0.7071 -0.7071 -0.7071 74.4668 45.6217)" fill="#97B1B7" width="0.6" height="6.9"/>
	</g>
	<g>
		<rect x="61.8" y="34.8" fill="#97B1B7" width="0.6" height="6.9"/>
		
			<rect x="61.8" y="34.8" transform="matrix(0.7071 0.7071 -0.7071 0.7071 45.2249 -32.7157)" fill="#97B1B7" width="0.6" height="6.9"/>
		<rect x="58.6" y="37.9" fill="#97B1B7" width="6.9" height="0.6"/>
		
			<rect x="61.8" y="34.8" transform="matrix(-0.7071 0.7071 -0.7071 -0.7071 133.0528 21.3545)" fill="#97B1B7" width="0.6" height="6.9"/>
	</g>
</g>
</svg>
