<?xml version="1.0" encoding="utf-8"?>
<!-- Generator: Adobe Illustrator 18.1.0, SVG Export Plug-In . SVG Version: 6.00 Build 0)  -->
<svg version="1.1" id="Layer_1" xmlns="http://www.w3.org/2000/svg" xmlns:xlink="http://www.w3.org/1999/xlink" x="0px" y="0px"
	 width="80px" height="52px" viewBox="0 0 80 52" enable-background="new 0 0 80 52" xml:space="preserve">
<g>
	<path fill="#97B1B7" d="M19.3,24.9c0.2-5.6,0.3-12.8,0.4-16.6c0-0.7,0.1-1,0.1-1.2C20,7,20.4,6.9,21.3,6.9c0.7,0,1.5,0.1,2.5,0.2
		c8.7,0.9,8.9,1.8,9.2,2.8c0.6,2.4,2.9,12.3,4.4,19c0.1,0,0.3,0,0.4,0c0.7,0.1,1.5,0.1,2.3,0.1c-1.5-6.6-4-17.2-4.6-19.7
		C34.8,6.5,33.3,5.5,24,4.5c-5.9-0.6-6.9,0.5-6.9,3.7c-0.1,3.7-0.3,10.7-0.4,16.1C17.6,24.5,18.5,24.7,19.3,24.9z"/>
	<path fill="#466283" d="M22.2,27.4c0.6,2,2,5.4,2.7,6.3c0.2,0.2,1.1,0.7,5,0.7c1.1,0,1.6-0.3,1.8-0.7c-0.6-1.7-2.5-1.2-5.1-0.6
		c-1.4,0.3-2-4-2.5-6.4c-1-5-0.5-9.3-0.7-10.8c-0.2-1.5-1.9-1.3-2.8,1.4c-0.4,1.1-0.1,4.7,0.3,8.5C21.5,26.1,22,26.7,22.2,27.4z"/>
	<path fill="#466283" d="M36,25.4c-0.5-0.9-2.3-0.8-4.1,0.2c-1.8,1-2.8,2.5-2.3,3.4c0.4,0.6,1.4,0.8,2.6,0.4l0.6,1.3
		c0.7-1.1,1.8-1.6,2.9-1.8l-0.6-1.2C36,26.9,36.4,26,36,25.4z"/>
	<circle fill="#97B1B7" cx="15" cy="41.5" r="4.3"/>
	<path fill="#97B1B7" d="M46.4,35.9c-0.5-2.1-1.4-4.3-2.1-4.7c-1.1-0.7-4.3-0.4-6.8-0.6c-2.5-0.2-3.5,0.8-3.8,2.6
		c-0.3,1.8-1.5,2.9-3.8,2.9c-2.3,0-5.3-0.1-6.3-1.3c-1-1.2-2.5-5.1-3-6.9c-0.7-2.3-8.2-2-11.6-2c-2.8,0-3.7,4.3-3.9,6.1
		c-0.1,1.8-0.7,8.3-0.7,8.3c0,0.6,0.9,0.9,2.2,1.1c0,0.1,0,0.1,0,0.2c0,4.7,3.8,8.5,8.5,8.5c4,0,7.4-2.8,8.3-6.6
		c2,0.1,4.5,0.1,7.6,0.1c0.3,0,0.6,0,0.8,0c0.9,3.7,4.3,6.5,8.3,6.5c4.7,0,8.5-3.8,8.5-8.5C48.6,39.4,47.8,37.4,46.4,35.9z M15,48.3
		c-3.7,0-6.8-3-6.8-6.8c0-3.7,3-6.8,6.8-6.8c3.7,0,6.8,3,6.8,6.8C21.8,45.3,18.8,48.3,15,48.3z M40.1,48.3c-3.7,0-6.8-3-6.8-6.8
		c0-3.7,3-6.8,6.8-6.8c3.7,0,6.8,3,6.8,6.8C46.8,45.3,43.8,48.3,40.1,48.3z"/>
	<circle fill="#97B1B7" cx="40.1" cy="41.5" r="4.4"/>
	
		<rect x="44.9" y="1.5" transform="matrix(0.9608 -0.2771 0.2771 0.9608 -4.5775 13.7294)" fill="#97B1B7" width="2.7" height="43.2"/>
	
		<rect x="50.3" y="39.2" transform="matrix(0.9608 -0.2773 0.2773 0.9608 -8.7202 18.6508)" fill="#97B1B7" width="22.7" height="1.8"/>
	
		<rect x="51.4" y="19.3" transform="matrix(0.9608 -0.2773 0.2773 0.9608 -5.2807 18.4394)" fill="#466283" width="22.4" height="17.2"/>
	
		<rect x="47.2" y="8.6" transform="matrix(0.9608 -0.2773 0.2773 0.9608 -1.7429 15.608)" fill="#5078A0" width="14.3" height="10.8"/>
</g>
</svg>
