<?xml version="1.0" encoding="utf-8"?>
<!-- Generator: Adobe Illustrator 18.1.0, SVG Export Plug-In . SVG Version: 6.00 Build 0)  -->
<svg version="1.1" id="Layer_1" xmlns="http://www.w3.org/2000/svg" xmlns:xlink="http://www.w3.org/1999/xlink" x="0px" y="0px"
	 width="80px" height="52px" viewBox="0 0 80 52" enable-background="new 0 0 80 52" xml:space="preserve">
<g>
	<path fill="#97B1B7" d="M38.6,3.2c2.8-0.1,5.3,1.1,7.8,2.1c1,0.4,1,1.8,0.1,2.7c-0.6,0.6-1.2,1.2-1.9,1.7c-2.6,2.2-3.4,5.2-3.7,8.4
		c-0.1,0.6,0,1-0.9,0.7c-2-0.5-3.9-0.2-5.6,0.9c-0.7,0.5-1.2,0.3-1.7-0.2c-4.4-4-4.7-9.7-0.6-13.9C33.7,3.8,36.1,3.2,38.6,3.2z"/>
	<path fill="#97B1B7" d="M42.9,31.9c1.9-1.7,3-3.7,2.9-6.1c0-0.4,0.2-0.6,0.6-0.7c3.2-1.8,8.9-0.5,11,2.7c3,4.6,1.9,8.7-1.4,12.6
		c-1.1,1.3-2.4,2.3-3.8,3.2c-1.2,0.8-2,0.5-2.4-0.8c-0.3-0.9-0.4-1.9-0.7-2.8C48.1,36.5,46.3,33.6,42.9,31.9z"/>
	<path fill="#97B1B7" d="M25.6,42c-3.7-0.1-7.2-2.6-8.3-6.2c-0.6-1.9-1.1-3.8-1.2-5.7c-0.1-1.9,0.6-2.5,2.4-1.8
		c1.5,0.5,3.1,0.9,4.7,1.1c2.4,0.2,4.7-0.3,6.8-1.5c0.6-0.3,0.8-0.3,1,0.4c0.6,2,1.7,3.6,3.6,4.6c0.7,0.3,0.7,0.8,0.6,1.4
		C34.3,39.1,30.6,42.1,25.6,42z"/>
	<g>
		<path fill="#6CBCDD" d="M57,19.2c-0.5,0.4-0.8,0.8-1,1.2c-0.3,0.5-0.9,0.6-1.2,0.2c-0.3-0.4-0.4-0.7,0.1-1.1
			c0.7-0.8,1.3-1.7,2-2.5c0.1-0.1,0.1-0.2,0.1-0.4c0-0.9,0-1.7,0-2.7c-0.9,0.5-1.7,1-2.4,1.5c-0.3,0.2-0.4,0.6-0.4,1
			c-0.1,0.9-0.6,1.7-0.9,2.5c-0.2,0.4-0.4,0.6-0.9,0.4c-0.4-0.2-0.6-0.5-0.4-0.9c0.1-0.6,0.4-1.1,0.6-1.6c-0.2-0.2-0.3,0-0.4,0
			c-0.6,0.6-1.5,0.8-2.2,1.2c-0.6,0.4-0.9,0-1.2-0.4c-0.3-0.5,0-0.8,0.4-1.1c0.7-0.5,1.5-1,2.3-1.3c-0.5,0-0.8-0.3-1.3-0.3
			c-0.5,0-0.9-0.4-0.9-0.9c0-0.5,0.5-1,1-0.8c1,0.3,2.1,0.3,3.2,0.5c0.7,0.1,1.4-0.2,1.9-0.6c0.3-0.2,0.9-0.2,0.8-0.6
			c0-0.4-0.6-0.3-0.9-0.6c-1-0.9-2.2-0.8-3.4-0.5c-0.6,0.1-1.2,0-1.7,0.2c-0.3,0.1-0.7,0-0.8-0.4c-0.1-0.4,0.2-0.7,0.6-0.8
			c0.6-0.2,1.2-0.3,1.9-0.4c-0.9-0.6-1.8-0.9-2.5-1.4c-0.4-0.3-0.7-0.6-0.6-1c0.1-0.5,0.6-0.5,0.9-0.7c0.1-0.1,0.2,0,0.4,0.1
			c0.9,0.5,1.8,0.8,2.8,1.6c-0.2-0.7-0.4-1.3-0.6-1.8c-0.2-0.5,0-0.8,0.5-1c0.5-0.1,0.7,0.1,0.9,0.6C53.8,7,54,8,54.4,8.9
			c0.1,0.3,0.4,0.6,0.7,0.7c0.7,0.3,1.2,0.8,1.9,1.1c0-0.9,0-1.8,0-2.7c0-0.3-0.2-0.5-0.4-0.8c-0.6-0.7-1.2-1.5-1.8-2.2
			c-0.3-0.4-0.3-0.7,0.1-1c0.4-0.3,0.8-0.3,1,0.1c0.3,0.5,0.7,0.8,1.1,1.3c0-0.6,0-1.1,0-1.6c0-0.5,0-0.9,0.1-1.4
			c0.1-0.6,0.5-0.8,1-0.8c0.5,0.1,0.7,0.5,0.8,1c0,0.9,0,1.8,0,2.9c0.4-0.4,0.6-0.7,0.9-1c0.2-0.2,0.3-0.4,0.5-0.5
			c0.3-0.3,0.6-0.2,0.9,0.1c0.2,0.2,0.3,0.5,0.1,0.8c-0.7,0.9-1.2,1.9-2.1,2.6C59,7.7,58.9,7.8,58.9,8c0,0.9,0,1.9,0,2.8
			c0.9-0.3,1.6-1,2.4-1.4c0.3-0.2,0.3-0.5,0.4-0.8C62,7.7,62.4,7,62.5,6.1c0.1-0.5,0.6-0.8,1-0.6C64,5.6,64.2,6.1,64,6.6
			c-0.2,0.5-0.4,1-0.7,1.7c0.5-0.3,0.9-0.5,1.3-0.7c0.5-0.5,1.1-0.6,1.7-0.9c0.4-0.2,0.7,0.2,0.9,0.5c0.2,0.3,0.1,0.7-0.1,1
			c-0.4,0.5-1,0.8-1.6,1c-0.4,0.2-0.7,0.3-1,0.7c0.5,0.3,1.1,0.3,1.7,0.4c0.5,0.1,0.6,0.4,0.6,0.8c0,0.4-0.4,0.6-0.8,0.6
			c-0.9-0.1-1.8-0.1-2.6-0.3c-1.3-0.3-2.1,0.3-3.1,0.9c-0.1,0.1-0.3,0.2-0.4,0.3c0.6,0.7,1.5,1,2.3,1.3c0.3,0.1,0.5,0,0.8,0
			c1-0.2,2-0.3,3-0.3c0.4,0,0.7,0.1,0.7,0.5c0.1,0.4-0.1,0.7-0.5,0.8c-0.6,0.1-1.2,0.2-2,0.4c0.8,0.4,1.5,0.8,2.1,1.2
			c0.3,0.2,0.6,0.4,0.8,0.7c0.2,0.3,0.3,0.6,0,0.9c-0.3,0.3-0.5,0.5-1,0.3c-0.9-0.4-1.8-0.9-2.7-1.5c0,0.7,0.5,1.1,0.6,1.7
			c0.1,0.6,0,1-0.6,1c-0.4,0-0.8-0.3-0.9-0.7c-0.1-0.5-0.3-0.9-0.4-1.3c-0.3-1.6-1.4-2.4-2.8-3.1c-0.1-0.1-0.2-0.2-0.5-0.3
			c0,1.1,0,2,0,3c0,0.1,0.1,0.1,0.1,0.2c0.8,0.7,1.4,1.7,2.1,2.5c0.4,0.4,0.4,0.7,0,1.1c-0.4,0.3-0.8,0.3-1.1-0.2
			c-0.3-0.5-0.7-0.7-1.1-1.3c0,1,0,1.9,0,2.7c0,0.7-0.3,1.2-0.8,1.2c-0.5,0-1-0.5-1-1.2C57,21,57,20.2,57,19.2z"/>
	</g>
	<g>
		<path fill="#517B9B" d="M18.2,22c-0.3,0.3-0.5,0.5-0.7,0.8c-0.2,0.3-0.6,0.4-0.8,0.1c-0.2-0.2-0.2-0.4,0-0.7
			c0.5-0.5,0.8-1.1,1.3-1.6c0.1-0.1,0.1-0.1,0.1-0.2c0-0.6,0-1.1,0-1.8c-0.6,0.3-1.1,0.6-1.6,1c-0.2,0.1-0.3,0.4-0.3,0.6
			c-0.1,0.6-0.4,1.1-0.6,1.6c-0.1,0.2-0.3,0.4-0.6,0.3c-0.3-0.1-0.4-0.3-0.3-0.6c0.1-0.4,0.3-0.7,0.4-1.1c-0.1-0.1-0.2,0-0.3,0
			c-0.4,0.4-1,0.5-1.4,0.8c-0.4,0.2-0.6,0-0.8-0.3c-0.2-0.3,0-0.5,0.2-0.7c0.5-0.3,0.9-0.6,1.5-0.9c-0.3,0-0.5-0.2-0.8-0.2
			c-0.3,0-0.6-0.3-0.6-0.6c0-0.3,0.3-0.6,0.6-0.6c0.7,0.2,1.4,0.2,2.1,0.3c0.5,0.1,0.9-0.1,1.2-0.4c0.2-0.1,0.6-0.1,0.5-0.4
			c0-0.2-0.4-0.2-0.6-0.4c-0.7-0.6-1.4-0.5-2.2-0.4c-0.4,0.1-0.8,0-1.1,0.1c-0.2,0.1-0.5,0-0.5-0.3c-0.1-0.3,0.1-0.5,0.4-0.5
			c0.4-0.1,0.7-0.2,1.3-0.2c-0.6-0.4-1.2-0.6-1.7-0.9c-0.3-0.2-0.4-0.4-0.4-0.7c0-0.3,0.4-0.3,0.6-0.5c0.1,0,0.2,0,0.2,0.1
			c0.6,0.3,1.2,0.5,1.8,1c-0.2-0.5-0.3-0.8-0.4-1.2c-0.1-0.3,0-0.5,0.3-0.6c0.3-0.1,0.5,0.1,0.6,0.4c0.3,0.6,0.4,1.3,0.7,1.9
			c0.1,0.2,0.2,0.4,0.5,0.5c0.4,0.2,0.8,0.6,1.3,0.7c0-0.6,0-1.2,0-1.7c0-0.2-0.2-0.4-0.3-0.5c-0.4-0.5-0.8-1-1.2-1.4
			c-0.2-0.2-0.2-0.5,0-0.6c0.2-0.2,0.5-0.2,0.7,0.1c0.2,0.3,0.5,0.5,0.7,0.8c0-0.4,0-0.7,0-1.1c0-0.3,0-0.6,0.1-0.9
			c0.1-0.4,0.3-0.5,0.6-0.5c0.3,0,0.5,0.3,0.5,0.6c0,0.6,0,1.2,0,1.9c0.2-0.3,0.4-0.4,0.6-0.6c0.1-0.1,0.2-0.2,0.3-0.3
			c0.2-0.2,0.4-0.1,0.6,0c0.1,0.1,0.2,0.3,0,0.5c-0.5,0.6-0.8,1.2-1.3,1.7c-0.1,0.1-0.2,0.1-0.2,0.3c0,0.6,0,1.2,0,1.8
			c0.6-0.2,1-0.6,1.5-0.9c0.2-0.1,0.2-0.3,0.3-0.5c0.2-0.5,0.5-1,0.6-1.6c0.1-0.3,0.4-0.5,0.6-0.4c0.3,0.1,0.4,0.4,0.3,0.7
			c-0.1,0.3-0.3,0.7-0.4,1.1c0.3-0.2,0.6-0.3,0.8-0.5c0.3-0.3,0.7-0.4,1.1-0.6c0.3-0.1,0.5,0.1,0.6,0.3c0.2,0.2,0,0.4-0.1,0.6
			c-0.3,0.3-0.6,0.5-1,0.7c-0.2,0.1-0.5,0.2-0.7,0.4c0.3,0.2,0.7,0.2,1.1,0.2c0.3,0.1,0.4,0.2,0.4,0.5c0,0.3-0.2,0.4-0.5,0.4
			c-0.6,0-1.1-0.1-1.7-0.2c-0.8-0.2-1.4,0.2-2,0.6c-0.1,0.1-0.2,0.1-0.3,0.2c0.4,0.4,1,0.6,1.5,0.8c0.2,0.1,0.4,0,0.5,0
			c0.6-0.1,1.3-0.2,1.9-0.2c0.2,0,0.4,0,0.5,0.3c0,0.3-0.1,0.5-0.3,0.5c-0.4,0.1-0.8,0.1-1.3,0.2c0.5,0.3,1,0.5,1.4,0.7
			c0.2,0.1,0.4,0.3,0.5,0.4c0.1,0.2,0.2,0.4,0,0.6c-0.2,0.2-0.4,0.3-0.6,0.2c-0.6-0.3-1.2-0.6-1.8-1c0,0.5,0.3,0.7,0.4,1.1
			c0.1,0.4,0,0.6-0.4,0.7c-0.3,0-0.5-0.2-0.6-0.4c-0.1-0.3-0.2-0.6-0.3-0.9c-0.2-1-0.9-1.6-1.8-2c-0.1,0-0.2-0.1-0.3-0.2
			c0,0.7,0,1.3,0,1.9c0,0,0,0.1,0.1,0.1c0.5,0.5,0.9,1.1,1.4,1.6c0.2,0.3,0.3,0.5,0,0.7c-0.2,0.2-0.5,0.2-0.7-0.1
			c-0.2-0.3-0.4-0.5-0.7-0.8c0,0.7,0,1.2,0,1.8c0,0.4-0.2,0.8-0.5,0.8c-0.4,0-0.7-0.3-0.7-0.7C18.2,23.2,18.2,22.7,18.2,22z"/>
	</g>
	<g>
		<path fill="#517B9B" d="M39.2,48.3c-0.2,0.2-0.4,0.4-0.5,0.6c-0.1,0.2-0.4,0.3-0.6,0.1c-0.2-0.2-0.2-0.3,0-0.6
			c0.4-0.4,0.6-0.9,1-1.2c0.1-0.1,0.1-0.1,0.1-0.2c0-0.4,0-0.9,0-1.4c-0.4,0.3-0.8,0.5-1.2,0.7c-0.2,0.1-0.2,0.3-0.2,0.5
			c-0.1,0.4-0.3,0.8-0.5,1.2c-0.1,0.2-0.2,0.3-0.4,0.2c-0.2-0.1-0.3-0.2-0.2-0.5c0.1-0.3,0.2-0.6,0.3-0.8c-0.1-0.1-0.2,0-0.2,0
			c-0.3,0.3-0.8,0.4-1.1,0.6c-0.3,0.2-0.5,0-0.6-0.2c-0.2-0.2,0-0.4,0.2-0.5c0.4-0.2,0.7-0.5,1.1-0.7c-0.2,0-0.4-0.2-0.7-0.1
			c-0.2,0-0.5-0.2-0.5-0.5c0-0.3,0.2-0.5,0.5-0.4c0.5,0.1,1.1,0.1,1.6,0.2c0.4,0.1,0.7-0.1,1-0.3c0.1-0.1,0.4-0.1,0.4-0.3
			c0-0.2-0.3-0.2-0.4-0.3c-0.5-0.5-1.1-0.4-1.7-0.3c-0.3,0.1-0.6,0-0.9,0.1c-0.2,0-0.4,0-0.4-0.2c0-0.2,0.1-0.4,0.3-0.4
			c0.3-0.1,0.6-0.1,1-0.2c-0.5-0.3-0.9-0.5-1.3-0.7c-0.2-0.1-0.3-0.3-0.3-0.5c0-0.2,0.3-0.3,0.4-0.4c0.1,0,0.1,0,0.2,0
			c0.4,0.2,0.9,0.4,1.4,0.8c-0.1-0.4-0.2-0.6-0.3-0.9c-0.1-0.2,0-0.4,0.2-0.5c0.2-0.1,0.4,0.1,0.5,0.3c0.2,0.5,0.3,1,0.5,1.5
			c0.1,0.2,0.2,0.3,0.4,0.3c0.3,0.1,0.6,0.4,1,0.6c0-0.5,0-0.9,0-1.4c0-0.2-0.1-0.3-0.2-0.4c-0.3-0.4-0.6-0.7-0.9-1.1
			c-0.2-0.2-0.2-0.4,0-0.5c0.2-0.1,0.4-0.1,0.5,0.1c0.2,0.2,0.4,0.4,0.6,0.7c0-0.3,0-0.6,0-0.8c0-0.2,0-0.4,0-0.7
			c0.1-0.3,0.2-0.4,0.5-0.4c0.3,0,0.4,0.2,0.4,0.5c0,0.5,0,0.9,0,1.4c0.2-0.2,0.3-0.3,0.5-0.5c0.1-0.1,0.2-0.2,0.2-0.3
			c0.2-0.1,0.3-0.1,0.4,0c0.1,0.1,0.2,0.2,0,0.4c-0.4,0.4-0.6,0.9-1,1.3c-0.1,0.1-0.1,0.1-0.1,0.2c0,0.5,0,0.9,0,1.4
			c0.5-0.2,0.8-0.5,1.2-0.7c0.1-0.1,0.2-0.3,0.2-0.4c0.1-0.4,0.4-0.8,0.4-1.2c0-0.2,0.3-0.4,0.5-0.3c0.2,0.1,0.3,0.3,0.2,0.6
			c-0.1,0.3-0.2,0.5-0.3,0.8c0.3-0.2,0.5-0.2,0.6-0.4c0.3-0.2,0.6-0.3,0.9-0.4c0.2-0.1,0.3,0.1,0.5,0.2c0.1,0.2,0,0.3-0.1,0.5
			c-0.2,0.3-0.5,0.4-0.8,0.5c-0.2,0.1-0.4,0.2-0.5,0.3c0.3,0.2,0.6,0.1,0.8,0.2c0.2,0.1,0.3,0.2,0.3,0.4c0,0.2-0.2,0.3-0.4,0.3
			c-0.4,0-0.9-0.1-1.3-0.2c-0.6-0.2-1.1,0.2-1.5,0.4c-0.1,0-0.1,0.1-0.2,0.2c0.3,0.3,0.7,0.5,1.2,0.6c0.1,0,0.3,0,0.4,0
			c0.5-0.1,1-0.2,1.5-0.2c0.2,0,0.3,0,0.4,0.2c0,0.2-0.1,0.4-0.3,0.4c-0.3,0.1-0.6,0.1-1,0.2c0.4,0.2,0.7,0.4,1.1,0.6
			c0.2,0.1,0.3,0.2,0.4,0.3c0.1,0.1,0.1,0.3,0,0.5c-0.1,0.1-0.3,0.3-0.5,0.2c-0.5-0.2-0.9-0.5-1.4-0.8c0,0.4,0.3,0.6,0.3,0.9
			c0,0.3,0,0.5-0.3,0.5c-0.2,0-0.4-0.1-0.4-0.3c-0.1-0.2-0.2-0.4-0.2-0.7c-0.2-0.8-0.7-1.2-1.4-1.5c-0.1,0-0.1-0.1-0.2-0.2
			c0,0.5,0,1,0,1.5c0,0,0,0.1,0.1,0.1c0.4,0.4,0.7,0.8,1.1,1.2c0.2,0.2,0.2,0.4,0,0.6c-0.2,0.2-0.4,0.1-0.5-0.1
			c-0.1-0.2-0.3-0.4-0.6-0.6c0,0.5,0,0.9,0,1.4c0,0.3-0.2,0.6-0.4,0.6c-0.3,0-0.5-0.3-0.5-0.6C39.2,49.2,39.2,48.8,39.2,48.3z"/>
	</g>
	<path fill="#ACC7CC" d="M38.1,19.9c-3.7-0.1-6.2,2.4-6.2,6.1c0,3.5,2.7,6.3,6,6.4c3.5,0.1,6.5-2.9,6.5-6.3
		C44.5,22.7,41.7,20,38.1,19.9z M38.1,29.6c-1.8,0-3.3-1.6-3.3-3.5c0-2.1,1.3-3.4,3.4-3.4c2,0,3.5,1.5,3.5,3.4
		C41.7,28,40,29.7,38.1,29.6z"/>
</g>
</svg>
