<?xml version="1.0" encoding="utf-8"?>
<!-- Generator: Adobe Illustrator 18.1.0, SVG Export Plug-In . SVG Version: 6.00 Build 0)  -->
<svg version="1.1" id="Layer_1" xmlns="http://www.w3.org/2000/svg" xmlns:xlink="http://www.w3.org/1999/xlink" x="0px" y="0px"
	 width="80px" height="52px" viewBox="0 0 80 52" enable-background="new 0 0 80 52" xml:space="preserve">
<g>
	<path fill="#466283" d="M25.8,8.5c-0.4-0.1-0.7-0.5-0.7-0.9c0-0.5,0.4-0.9,0.9-0.9c0.5,0,0.9,0.4,0.9,0.9c0,0.4-0.3,0.8-0.7,0.9
		h1.6C28,8.2,28,7.9,28,7.6c0-1.1-0.9-2-2-2c-1.1,0-2,0.9-2,2c0,0.3,0.1,0.6,0.2,0.9H25.8z"/>
	<path fill="#466283" d="M54,8.5c-0.4-0.1-0.7-0.5-0.7-0.9c0-0.5,0.4-0.9,0.9-0.9c0.5,0,0.9,0.4,0.9,0.9c0,0.4-0.3,0.8-0.7,0.9H56
		c0.1-0.3,0.2-0.6,0.2-0.9c0-1.1-0.9-2-2-2c-1.1,0-2,0.9-2,2c0,0.3,0.1,0.6,0.2,0.9H54z"/>
	<path fill="#5078A0" d="M57.4,25.4c0,0.6-0.5,1-1,1H23.6c-0.6,0-1-0.5-1-1V8.6c0-0.6,0.5-1,1-1h32.8c0.6,0,1,0.5,1,1V25.4z"/>
	<path fill="#466283" d="M26.2,24.6h-1.4V9.4h1.4V24.6z M29.4,9.4H28v15.2h1.4V9.4z M32.6,9.4h-1.4v15.2h1.4V9.4z M35.9,9.4h-1.4
		v15.2h1.4V9.4z M39.1,9.4h-1.4v15.2h1.4V9.4z M42.3,9.4h-1.4v15.2h1.4V9.4z M45.5,9.4h-1.4v15.2h1.4V9.4z M48.8,9.4h-1.4v15.2h1.4
		V9.4z M52,9.4h-1.4v15.2H52V9.4z M55.2,9.4h-1.4v15.2h1.4V9.4z"/>
	<g>
		<g>
			<path fill="#8EA9AD" d="M7.8,28.5c-0.4-0.1-0.7-0.5-0.7-0.9c0-0.5,0.4-0.9,0.9-0.9c0.5,0,0.9,0.4,0.9,0.9c0,0.4-0.3,0.8-0.7,0.9
				h1.6c0.1-0.3,0.2-0.6,0.2-0.9c0-1.1-0.9-2-2-2c-1.1,0-2,0.9-2,2c0,0.3,0.1,0.6,0.2,0.9H7.8z"/>
			<path fill="#ACC7CC" d="M39.4,45.4c0,0.6-0.5,1-1,1H5.6c-0.6,0-1-0.5-1-1V28.6c0-0.6,0.5-1,1-1h32.8c0.6,0,1,0.5,1,1V45.4z"/>
			<path fill="#8EA9AD" d="M8.1,44.6H6.7V29.4h1.4V44.6z M11.4,29.4H10v15.2h1.4V29.4z M14.6,29.4h-1.4v15.2h1.4V29.4z M17.8,29.4
				h-1.4v15.2h1.4V29.4z M21,29.4h-1.4v15.2H21V29.4z M24.3,29.4h-1.4v15.2h1.4V29.4z M27.5,29.4h-1.4v15.2h1.4V29.4z M30.7,29.4
				h-1.4v15.2h1.4V29.4z M34,29.4h-1.4v15.2H34V29.4z M37.2,29.4h-1.4v15.2h1.4V29.4z"/>
		</g>
		<g>
			<path fill="#8EA9AD" d="M72.2,28.5c0.4-0.1,0.7-0.5,0.7-0.9c0-0.5-0.4-0.9-0.9-0.9c-0.5,0-0.9,0.4-0.9,0.9c0,0.4,0.3,0.8,0.7,0.9
				h-1.6c-0.1-0.3-0.2-0.6-0.2-0.9c0-1.1,0.9-2,2-2c1.1,0,2,0.9,2,2c0,0.3-0.1,0.6-0.2,0.9H72.2z"/>
			<path fill="#ACC7CC" d="M40.6,45.4c0,0.6,0.5,1,1,1h32.8c0.6,0,1-0.5,1-1V28.6c0-0.6-0.5-1-1-1H41.6c-0.6,0-1,0.5-1,1V45.4z"/>
			<path fill="#8EA9AD" d="M71.9,29.4h1.4v15.2h-1.4V29.4z M68.6,44.6H70V29.4h-1.4V44.6z M65.4,44.6h1.4V29.4h-1.4V44.6z
				 M62.2,44.6h1.4V29.4h-1.4V44.6z M59,44.6h1.4V29.4H59V44.6z M55.7,44.6h1.4V29.4h-1.4V44.6z M52.5,44.6h1.4V29.4h-1.4V44.6z
				 M49.3,44.6h1.4V29.4h-1.4V44.6z M46,44.6h1.4V29.4H46V44.6z M42.8,44.6h1.4V29.4h-1.4V44.6z"/>
		</g>
	</g>
</g>
</svg>
